<svg width="491" height="86" viewBox="0 0 491 86" fill="none" xmlns="http://www.w3.org/2000/svg">
<g filter="url(#filter0_d_36_4)">
<path d="M13 46.0491V76.9744H18.3473H23.6947V66.4598V55.9452H33.6763C45.6781 55.9452 50.1936 53.4711 54.4715 44.4409C58.0364 36.8952 57.2046 29.9679 51.9761 23.288C46.5099 16.3607 42.5886 15.1237 26.6654 15.1237H13V46.0491ZM42.8262 28.6072C45.7969 32.4419 45.6781 38.7507 42.5886 42.8328C40.3308 45.8017 39.3802 46.0491 31.8939 46.0491H23.6947V36.4004C23.6947 31.0812 24.0511 26.2569 24.6453 25.762C25.1206 25.2672 28.9232 25.0198 33.0822 25.2672C39.2613 25.6383 41.0438 26.2569 42.8262 28.6072Z" fill="white"/>
<path d="M77.049 18.4637C76.0984 21.3088 58.0363 70.2945 56.135 75.3663C55.6597 76.4796 57.2045 76.9744 61.4823 76.9744H67.4238L69.8004 69.7997L72.0582 62.7487H83.1093H94.2793L96.6559 69.9234L99.1513 76.9744H104.974C109.014 76.9744 110.559 76.4796 110.202 75.3663C109.846 74.6241 104.855 60.6458 99.0325 44.5646L88.4566 15.1237H83.347C78.9503 15.1237 78.1185 15.4948 77.049 18.4637ZM90.7144 50.626C91.5462 53.3474 91.3085 53.4711 83.2281 53.4711C78.5938 53.4711 74.7912 53.2237 74.7912 52.9763C74.7912 52.1104 81.921 32.1945 82.7528 30.8338C83.347 29.7205 87.7437 40.6062 90.7144 50.626Z" fill="white"/>
<path d="M117.57 46.0491V76.9744H123.512H129.334L129.691 57.5533L130.047 38.1322L144.901 57.5533L159.755 76.9744H164.864H169.855L169.618 46.4202L169.261 15.7422L163.676 15.3711L157.972 15V34.7922C157.972 45.8017 157.616 54.7082 157.141 54.5845C156.546 54.5845 149.535 45.678 141.336 34.7922C126.839 15.6185 126.364 15.1237 122.086 15.1237H117.57V46.0491Z" fill="white"/>
<path d="M198.374 16.8555L194.215 18.4636L193.858 27.6175L193.502 36.7714L203.127 26.8753C208.356 21.4325 212.634 16.6081 212.634 16.1133C212.634 14.6289 203.008 15.1237 198.374 16.8555Z" fill="white"/>
<path d="M245.906 46.0491V76.9744H251.254H256.482L256.839 66.7072L257.195 56.5637H263.137H269.078L275.02 66.7072L280.961 76.9744H287.259C294.389 76.9744 294.627 78.2114 285.833 63.4909L280.367 54.2133L284.407 50.7497C291.656 44.5646 292.963 33.5552 287.378 24.2776C283.1 17.103 277.634 15.1237 260.523 15.1237H245.906V46.0491ZM276.921 28.6072C280.011 32.4419 279.892 39.864 276.802 43.3276C274.663 45.678 273 46.0491 265.513 46.0491H256.601V36.4004C256.601 31.0812 256.958 26.2568 257.552 25.762C258.027 25.2672 262.067 25.0198 266.583 25.2672C273.356 25.6383 275.139 26.2568 276.921 28.6072Z" fill="white"/>
<path d="M307.103 44.4409C301.28 60.5221 296.171 74.5004 296.052 75.49C295.695 76.727 297.003 76.9744 301.28 76.727L306.984 76.3559L309.48 69.5523L311.975 62.7487L322.789 62.3776L333.483 62.0065L336.216 69.5523L338.83 76.9744H344.653H350.357L348.693 72.2737C347.862 69.7997 342.871 56.0689 337.642 41.7195L328.136 15.7422L322.907 15.3711L317.798 15L307.103 44.4409ZM327.779 42.5854L331.344 53.4711H323.145C318.511 53.4711 314.827 53.1 314.827 52.4815C314.827 50.0075 322.551 30.0916 323.264 30.9575C323.739 31.4523 325.759 36.6478 327.779 42.5854Z" fill="white"/>
<path d="M357.606 45.9254V76.9744H363.31H368.895L368.538 57.0585C368.301 44.3172 368.657 37.39 369.37 37.8848C369.964 38.3796 373.291 44.3172 376.738 51.3682C384.105 66.4598 384.461 67.0783 387.789 67.0783C389.928 67.0783 391.829 64.2332 398.127 51.863L405.732 36.7715L406.088 56.8111L406.326 76.9744H411.673H417.021V46.0491V15.1237H411.198H405.375L399.672 26.5043C396.463 32.813 392.542 40.6062 390.878 43.8224C389.333 47.1624 387.67 49.7601 387.313 49.7601C386.957 49.7601 382.917 42.0906 378.282 32.6893L369.964 15.7422L363.785 15.3711L357.606 15V45.9254Z" fill="white"/>
<path d="M436.271 45.1832C430.21 61.6354 425.338 75.6137 425.338 76.1085C425.338 76.6033 427.834 76.9744 430.923 76.727L436.508 76.3559L438.885 69.1812L441.38 62.1302H452.194H463.007L465.622 69.5523L468.236 76.9744H474.058H480L477.505 70.4182C476.079 66.9546 471.92 55.3267 468.117 44.812C456.472 12.4023 457.898 15.1237 452.194 15.1237H447.322L436.271 45.1832ZM457.066 42.5854L460.75 53.4711H452.55C446.965 53.4711 444.351 52.9763 444.351 51.9867C444.351 49.0179 451.837 29.8442 452.669 30.8338C453.144 31.3286 455.165 36.6478 457.066 42.5854Z" fill="white"/>
<path d="M210.732 22.6695L205.029 28.7309H218.575H232.122L228.557 24.8962C226.656 22.7932 223.209 20.0718 220.833 18.8348L216.555 16.4845L210.732 22.6695Z" fill="white"/>
<path d="M185.303 25.7621C183.283 28.2361 181.025 31.6997 180.431 33.4315C179.361 36.2767 179.837 37.2663 185.303 42.8328L191.244 49.1416V35.1634C191.244 27.6176 190.769 21.3088 190.175 21.3088C189.581 21.3088 187.442 23.288 185.303 25.7621Z" fill="white"/>
<path d="M217.386 32.1945C217.386 32.6893 221.546 37.5136 226.774 42.8328C235.805 52.2341 236.162 52.3578 236.875 49.2653C237.587 46.049 237.231 42.7091 234.973 35.1633L233.785 31.2049H225.586C221.07 31.2049 217.386 31.576 217.386 32.1945Z" fill="white"/>
<path d="M201.82 36.7714C197.304 39.2454 195.641 45.0594 197.661 50.3785C199.562 55.0792 202.652 57.1821 207.643 57.1821C214.416 57.1821 220.595 48.3993 217.624 42.9565C216.674 41.1009 216.436 41.1009 215.129 42.8328C211.445 47.4097 204.553 43.8224 205.979 38.0084C206.811 34.5448 206.217 34.2974 201.82 36.7714Z" fill="white"/>
<path d="M178.173 46.5439C178.173 50.1312 178.767 54.8319 179.48 57.0585L180.787 60.8932H189.818H198.968L188.867 50.3786C183.282 44.5646 178.648 39.864 178.529 39.864C178.291 39.864 178.173 42.8328 178.173 46.5439Z" fill="white"/>
<path d="M223.328 57.5532V72.15L226.655 69.676C228.556 68.3153 231.408 64.7279 232.953 61.6354L235.805 55.9451L229.507 49.5127L223.328 42.9565V57.5532Z" fill="white"/>
<path d="M211.089 65.5938C206.098 70.7893 201.939 75.6136 201.939 76.1084C201.939 77.4691 211.326 77.098 216.555 75.6136L220.952 74.3766V65.2227C220.952 60.151 220.833 55.9451 220.595 55.9451C220.476 55.9451 216.199 60.2747 211.089 65.5938Z" fill="white"/>
<path d="M186.016 67.202C187.917 69.305 191.601 72.1501 194.096 73.5108L198.731 75.9848L204.791 69.6761L210.851 63.3673H196.71H182.451L186.016 67.202Z" fill="white"/>
</g>
<defs>
<filter id="filter0_d_36_4" x="0" y="3.05176e-05" width="491" height="86" filterUnits="userSpaceOnUse" color-interpolation-filters="sRGB">
<feFlood flood-opacity="0" result="BackgroundImageFix"/>
<feColorMatrix in="SourceAlpha" type="matrix" values="0 0 0 0 0 0 0 0 0 0 0 0 0 0 0 0 0 0 127 0" result="hardAlpha"/>
<feOffset dx="-1" dy="-3"/>
<feGaussianBlur stdDeviation="6"/>
<feComposite in2="hardAlpha" operator="out"/>
<feColorMatrix type="matrix" values="0 0 0 0 1 0 0 0 0 1 0 0 0 0 1 0 0 0 0.8 0"/>
<feBlend mode="normal" in2="BackgroundImageFix" result="effect1_dropShadow_36_4"/>
<feBlend mode="normal" in="SourceGraphic" in2="effect1_dropShadow_36_4" result="shape"/>
</filter>
</defs>
</svg>
